<svg xmlns="http://www.w3.org/2000/svg" version="1.1" xmlns:xlink="http://www.w3.org/1999/xlink" xmlns:svgjs="http://svgjs.dev/svgjs" width="2000" height="863" viewBox="0 0 2000 863"><g transform="matrix(1,0,0,1,-1.2121212121212466,0.8176932891551019)"><svg viewBox="0 0 396 171" data-background-color="#ffffff" preserveAspectRatio="xMidYMid meet" height="863" width="2000" xmlns="http://www.w3.org/2000/svg" xmlns:xlink="http://www.w3.org/1999/xlink"><g id="tight-bounds" transform="matrix(1,0,0,1,0.2400000000000091,-0.1620226563679239)"><svg viewBox="0 0 395.52 171.32404531273585" height="171.32404531273585" width="395.52"><g><svg viewBox="0 0 395.52 171.32404531273585" height="171.32404531273585" width="395.52"><g><svg viewBox="0 0 395.52 171.32404531273585" height="171.32404531273585" width="395.52"><g id="textblocktransform"><svg viewBox="0 0 395.52 171.32404531273585" height="171.32404531273585" width="395.52" id="textblock"><g><rect width="395.52" height="123.92029599056603" fill="none" stroke-width="9.018103199999999" stroke="#339af0" data-fill-palette-color="none" data-stroke-palette-color="tertiary"></rect><rect width="395.52" height="47.40374932216981" y="123.92029599056603" fill="#339af0" data-fill-palette-color="tertiary"></rect></g><g><svg viewBox="0 0 395.52 123.92029599056603" height="123.92029599056603" width="395.52"><g transform="matrix(1,0,0,1,23.607599999999998,23.607599999999998)"><svg width="348.3048" viewBox="5.7 -37.1 169.59 37.35" height="76.70509599056604" data-palette-color="#339af0"><path d="M5.7 0L5.7-35 19.95-35Q25.5-35 29.75-32.77 34-30.55 36.35-26.58 38.7-22.6 38.7-17.5L38.7-17.5Q38.7-12.4 36.35-8.43 34-4.45 29.75-2.23 25.5 0 19.95 0L19.95 0 5.7 0ZM9.4-3.2L19.75-3.2Q24.35-3.2 27.8-5.03 31.25-6.85 33.15-10.08 35.05-13.3 35.05-17.5L35.05-17.5Q35.05-21.7 33.15-24.93 31.25-28.15 27.8-29.98 24.35-31.8 19.75-31.8L19.75-31.8 9.4-31.8 9.4-3.2ZM66.4-26.3L69.95-26.3 69.95 0 66.55 0 66.55-4.8Q65.15-2.4 62.7-1.07 60.25 0.25 57.1 0.25L57.1 0.25Q51.95 0.25 48.97-2.63 46-5.5 46-11.05L46-11.05 46-26.3 49.55-26.3 49.55-11.4Q49.55-7.25 51.6-5.1 53.65-2.95 57.45-2.95L57.45-2.95Q61.6-2.95 64-5.48 66.4-8 66.4-12.5L66.4-12.5 66.4-26.3ZM102.85-13.15L102.8-12.05 80.8-12.05Q81.1-7.95 83.95-5.43 86.8-2.9 91.15-2.9L91.15-2.9Q93.6-2.9 95.65-3.78 97.7-4.65 99.2-6.35L99.2-6.35 101.2-4.05Q99.45-1.95 96.82-0.85 94.2 0.25 91.05 0.25L91.05 0.25Q87 0.25 83.87-1.48 80.75-3.2 79-6.25 77.25-9.3 77.25-13.15L77.25-13.15Q77.25-17 78.92-20.05 80.6-23.1 83.52-24.8 86.45-26.5 90.1-26.5L90.1-26.5Q93.75-26.5 96.65-24.8 99.55-23.1 101.2-20.08 102.85-17.05 102.85-13.15L102.85-13.15ZM90.1-23.45Q86.3-23.45 83.72-21.03 81.15-18.6 80.8-14.7L80.8-14.7 99.45-14.7Q99.1-18.6 96.52-21.03 93.95-23.45 90.1-23.45L90.1-23.45ZM110.09 0L110.09-37.1 113.64-37.1 113.64 0 110.09 0ZM123.54 0L123.54-26.3 127.09-26.3 127.09 0 123.54 0ZM125.34-32.05Q124.24-32.05 123.49-32.8 122.74-33.55 122.74-34.6L122.74-34.6Q122.74-35.6 123.49-36.35 124.24-37.1 125.34-37.1L125.34-37.1Q126.44-37.1 127.19-36.38 127.94-35.65 127.94-34.65L127.94-34.65Q127.94-33.55 127.19-32.8 126.44-32.05 125.34-32.05L125.34-32.05ZM144.04 0.25Q140.84 0.25 137.91-0.68 134.99-1.6 133.34-3L133.34-3 134.94-5.8Q136.59-4.5 139.09-3.68 141.59-2.85 144.29-2.85L144.29-2.85Q147.89-2.85 149.61-3.98 151.34-5.1 151.34-7.15L151.34-7.15Q151.34-8.6 150.39-9.43 149.44-10.25 147.99-10.68 146.54-11.1 144.14-11.5L144.14-11.5Q140.94-12.1 138.99-12.73 137.04-13.35 135.66-14.85 134.29-16.35 134.29-19L134.29-19Q134.29-22.3 137.04-24.4 139.79-26.5 144.69-26.5L144.69-26.5Q147.24-26.5 149.79-25.83 152.34-25.15 153.99-24.05L153.99-24.05 152.44-21.2Q149.19-23.45 144.69-23.45L144.69-23.45Q141.29-23.45 139.56-22.25 137.84-21.05 137.84-19.1L137.84-19.1Q137.84-17.6 138.81-16.7 139.79-15.8 141.24-15.38 142.69-14.95 145.24-14.5L145.24-14.5Q148.39-13.9 150.29-13.3 152.19-12.7 153.54-11.25 154.89-9.8 154.89-7.25L154.89-7.25Q154.89-3.8 152.01-1.78 149.14 0.25 144.04 0.25L144.04 0.25ZM174.04-4.15L175.29-1.6Q174.29-0.7 172.81-0.23 171.34 0.25 169.74 0.25L169.74 0.25Q166.04 0.25 164.04-1.75 162.04-3.75 162.04-7.4L162.04-7.4 162.04-23.3 157.34-23.3 157.34-26.3 162.04-26.3 162.04-32.05 165.59-32.05 165.59-26.3 173.59-26.3 173.59-23.3 165.59-23.3 165.59-7.6Q165.59-5.25 166.76-4.03 167.94-2.8 170.14-2.8L170.14-2.8Q171.24-2.8 172.26-3.15 173.29-3.5 174.04-4.15L174.04-4.15Z" opacity="1" transform="matrix(1,0,0,1,0,0)" fill="#339af0" class="wordmark-text-0" data-fill-palette-color="primary" id="text-0"></path></svg></g></svg></g></svg></g></svg></g></svg></g><defs></defs></svg><rect width="395.52" height="171.32404531273585" fill="none" stroke="none" visibility="hidden"></rect></g></svg></g></svg>