<svg width="863" height="863" viewBox="0 0 863 863" fill="none" xmlns="http://www.w3.org/2000/svg">
<g clip-path="url(#clip0_4_2)">
<g clip-path="url(#clip1_4_2)">
<g clip-path="url(#clip2_4_2)">
<g clip-path="url(#clip3_4_2)">
<g clip-path="url(#clip4_4_2)">
<g clip-path="url(#clip5_4_2)">
<path d="M861.636 1.52588e-05H0.317627V625.399H861.636V1.52588e-05Z" stroke="#ABDF3A" stroke-width="45.5124"/>
<path d="M861.636 625.399H0.317627V864.635H861.636V625.399Z" fill="#ABDF3A"/>
<path d="M223 534V91H403.068C449.823 91 491.102 100.408 526.905 119.225C562.708 137.958 590.508 164.074 610.305 197.573C630.102 231.157 640 269.466 640 312.5C640 355.534 630.102 393.801 610.305 427.3C590.508 460.884 562.708 487.042 526.905 505.775C491.102 524.592 449.823 534 403.068 534H223ZM269.755 493.497H400.541C439.292 493.497 473.2 485.776 502.264 470.335C531.327 454.977 553.862 433.671 569.868 406.416C585.874 379.245 593.877 347.94 593.877 312.5C593.877 277.06 585.874 245.712 569.868 218.457C553.862 191.287 531.327 169.981 502.264 154.539C473.2 139.182 439.292 131.503 400.541 131.503H269.755V493.497Z" fill="#ABDF3A"/>
</g>
</g>
</g>
</g>
</g>
</g>
<defs>
<clipPath id="clip0_4_2">
<rect width="863" height="863" fill="white"/>
</clipPath>
<clipPath id="clip1_4_2">
<rect width="863" height="863" fill="white" transform="translate(-0.52301 0.817688)"/>
</clipPath>
<clipPath id="clip2_4_2">
<rect width="861.319" height="864.635" fill="white" transform="translate(0.317627 1.52588e-05)"/>
</clipPath>
<clipPath id="clip3_4_2">
<rect width="861.319" height="864.635" fill="white" transform="translate(0.317627 1.52588e-05)"/>
</clipPath>
<clipPath id="clip4_4_2">
<rect width="861.319" height="864.635" fill="white" transform="translate(0.317627 1.52588e-05)"/>
</clipPath>
<clipPath id="clip5_4_2">
<rect width="861.319" height="864.635" fill="white" transform="translate(0.317627 1.52588e-05)"/>
</clipPath>
</defs>
</svg>
